<?xml version="1.0" encoding="UTF-8" ?>
<!DOCTYPE svg PUBLIC "-//W3C//DTD SVG 1.1//EN" "http://www.w3.org/Graphics/SVG/1.1/DTD/svg11.dtd">
<svg width="64pt" height="64pt" viewBox="0 0 64 64" version="1.1" xmlns="http://www.w3.org/2000/svg">
<g id="#4789d7f3">
<path fill="#4789d7" opacity="0.95" d=" M 22.56 10.13 C 25.56 8.41 28.86 7.31 32.00 5.89 C 39.31 8.99 46.58 12.18 53.91 15.24 C 54.09 17.74 53.93 20.25 54.08 22.75 C 55.11 24.09 56.91 25.81 55.55 27.57 C 54.34 29.82 50.86 29.29 50.10 26.96 C 49.44 25.20 51.07 24.01 51.95 22.75 C 51.99 21.01 51.99 19.28 52.01 17.55 C 45.34 20.41 38.66 23.24 32.01 26.11 C 28.34 24.53 24.67 22.97 21.00 21.41 C 21.19 25.37 20.61 29.44 21.32 33.34 C 28.35 35.52 35.96 35.31 43.00 33.29 C 43.00 29.88 42.99 26.47 43.01 23.07 C 43.50 23.07 44.49 23.06 44.99 23.06 C 45.00 26.97 45.09 30.89 44.92 34.80 C 36.59 37.63 27.41 37.62 19.07 34.81 C 18.86 30.00 19.13 25.19 18.89 20.39 C 15.96 19.18 12.95 18.14 10.16 16.63 C 10.15 16.32 10.14 15.71 10.13 15.40 C 13.67 13.62 17.31 12.01 21.11 10.89 C 20.76 14.44 16.17 14.42 13.69 15.98 C 19.77 18.68 25.91 21.25 32.01 23.88 C 38.11 21.23 44.26 18.72 50.33 16.00 C 44.25 13.30 38.09 10.77 31.99 8.10 C 28.84 9.18 25.85 11.54 22.46 11.40 L 22.56 10.13 M 52.19 25.15 C 51.63 26.76 52.17 27.32 53.80 26.85 C 54.36 25.24 53.82 24.67 52.19 25.15 Z" />
<path fill="#4789d7" opacity="0.95" d=" M 4.28 28.53 C 3.68 26.97 4.12 26.57 5.62 27.33 C 9.25 30.68 12.36 34.56 15.84 38.06 C 17.87 40.33 20.54 42.29 21.33 45.38 C 18.48 44.62 16.84 42.05 14.89 40.07 C 11.45 36.13 7.57 32.59 4.28 28.53 Z" />
<path fill="#4789d7" opacity="0.95" d=" M 57.81 27.82 C 58.68 26.66 60.88 26.58 59.74 28.50 C 56.47 32.61 52.53 36.15 49.07 40.11 C 47.14 42.08 45.51 44.64 42.65 45.33 C 43.42 42.53 45.74 40.68 47.62 38.63 C 51.08 35.09 54.33 31.35 57.81 27.82 Z" />
<path fill="#4789d7" opacity="0.95" d=" M 6.58 38.74 C 10.16 39.78 13.07 42.87 14.32 46.34 C 10.82 45.10 8.01 42.12 6.58 38.74 Z" />
<path fill="#4789d7" opacity="0.95" d=" M 23.97 38.92 C 26.11 39.02 28.11 40.86 27.98 43.08 C 25.84 42.95 23.92 41.11 23.97 38.92 Z" />
<path fill="#4789d7" opacity="0.95" d=" M 30.90 43.21 C 31.32 41.63 30.10 38.04 32.94 39.19 C 33.14 41.02 33.48 43.31 30.90 43.21 Z" />
<path fill="#4789d7" opacity="0.95" d=" M 38.48 39.23 C 39.92 38.73 40.33 39.20 39.72 40.65 C 38.89 42.19 37.21 42.80 35.66 43.33 C 36.23 41.78 36.83 39.97 38.48 39.23 Z" />
<path fill="#4789d7" opacity="0.95" d=" M 49.71 46.41 C 50.56 43.06 53.52 40.92 56.02 38.81 C 56.32 39.10 56.91 39.66 57.20 39.94 C 55.14 42.50 52.92 45.27 49.71 46.41 Z" />
<path fill="#4789d7" opacity="0.95" d=" M 7.45 50.67 C 13.64 48.72 19.97 47.22 26.23 45.51 C 28.30 44.69 30.24 45.78 32.00 46.77 C 33.76 45.77 35.71 44.68 37.78 45.51 C 44.08 47.36 50.64 48.53 56.73 50.94 C 56.58 51.31 56.27 52.03 56.12 52.39 C 49.56 51.10 43.23 48.84 36.71 47.39 C 35.17 46.80 32.46 48.43 33.29 50.14 C 42.80 52.37 52.45 54.02 61.98 56.23 C 61.96 58.17 62.03 60.11 61.92 62.06 C 53.80 61.38 45.70 60.42 37.59 59.59 C 35.02 63.07 29.53 62.89 26.58 59.98 C 23.98 59.50 21.20 60.26 18.53 60.14 C 18.81 59.72 19.37 58.87 19.65 58.44 C 22.56 57.76 25.62 57.43 28.61 57.63 C 28.84 58.22 29.31 59.40 29.54 59.99 C 31.18 59.99 32.81 59.98 34.45 59.98 C 34.84 59.37 35.63 58.16 36.02 57.56 C 44.14 57.97 52.21 59.22 60.31 59.86 C 60.07 58.61 59.65 57.41 58.15 57.45 C 49.81 55.69 41.45 54.05 33.12 52.24 C 32.77 54.08 33.86 57.02 31.16 57.31 C 31.05 55.61 30.98 53.92 30.91 52.22 C 22.09 54.29 13.08 55.64 4.33 57.96 C 4.17 58.44 3.84 59.39 3.67 59.87 C 8.33 59.52 12.96 58.67 17.64 58.81 C 17.14 60.00 16.29 60.66 15.10 60.78 C 10.75 61.23 6.41 61.77 2.05 62.02 C 2.04 60.09 1.95 58.16 2.04 56.23 C 2.69 56.09 4.00 55.82 4.65 55.68 C 5.14 53.85 5.27 51.33 7.45 50.67 M 12.99 51.15 C 10.53 51.92 7.17 51.99 6.56 55.12 C 14.88 53.58 23.16 51.81 31.43 50.02 C 30.43 48.71 29.27 46.65 27.27 47.40 C 22.47 48.47 17.78 49.99 12.99 51.15 Z" />
</g>
</svg>
