<?xml version="1.0" encoding="UTF-8" ?>
<!DOCTYPE svg PUBLIC "-//W3C//DTD SVG 1.1//EN" "http://www.w3.org/Graphics/SVG/1.1/DTD/svg11.dtd">
<svg width="96pt" height="96pt" viewBox="0 0 96 96" version="1.1" xmlns="http://www.w3.org/2000/svg">
<g id="#edededed">
<path fill="#ededed" opacity="0.93" d=" M 0.00 0.00 L 1.03 0.00 C 0.99 32.00 1.01 64.00 1.00 96.00 L 0.00 96.00 L 0.00 0.00 Z" />
</g>
<g id="#ffffffff">
</g>
<g id="#0082d1ff">
<path fill="#0082d1" opacity="1.00" d=" M 42.24 23.00 C 41.30 18.27 46.36 13.82 50.88 15.20 C 54.31 15.98 56.83 19.54 56.30 23.05 C 56.12 26.24 53.21 28.16 50.62 29.44 C 50.62 31.72 50.63 34.01 50.59 36.29 C 49.88 36.27 48.45 36.23 47.74 36.21 C 47.74 33.93 47.74 31.66 47.73 29.39 C 45.20 28.10 42.17 26.23 42.24 23.00 Z" />
<path fill="#0082d1" opacity="1.00" d=" M 75.56 32.78 C 74.94 29.13 77.61 26.37 80.96 25.54 C 83.83 26.35 87.08 28.53 86.47 31.96 C 86.17 36.59 80.21 38.11 76.94 35.34 C 72.31 38.21 67.46 40.70 62.88 43.66 C 62.40 43.18 61.44 42.22 60.97 41.74 C 65.41 38.12 70.77 35.88 75.56 32.78 Z" />
<path fill="#0082d1" opacity="1.00" d=" M 11.57 32.96 C 12.13 29.28 15.73 25.33 19.66 27.46 C 22.82 28.33 22.26 32.07 23.67 34.21 C 27.87 37.02 32.35 39.42 36.77 41.87 C 36.38 42.55 35.60 43.93 35.21 44.61 C 31.08 41.13 26.04 39.11 21.36 36.51 C 19.58 37.57 17.47 38.20 15.43 37.55 C 13.29 37.02 12.56 34.66 11.57 32.96 Z" />
<path fill="#0082d1" opacity="1.00" d=" M 45.25 39.16 C 53.00 36.42 62.31 42.68 62.45 50.96 C 63.27 58.13 57.11 64.95 49.97 65.25 C 41.93 65.87 34.58 57.88 36.07 49.91 C 36.60 44.84 40.54 40.75 45.25 39.16 Z" />
<path fill="#0082d1" opacity="1.00" d=" M 3.22 50.94 C 3.49 46.25 9.40 43.03 13.46 45.46 C 15.47 46.36 16.54 48.35 17.41 50.26 C 22.74 50.59 28.09 50.69 33.43 50.52 C 33.42 51.21 33.41 52.59 33.41 53.28 C 28.12 53.28 22.83 53.25 17.54 53.28 C 16.22 55.83 14.29 58.94 10.99 58.77 C 6.58 59.57 2.48 55.29 3.22 50.94 Z" />
<path fill="#0082d1" opacity="1.00" d=" M 81.08 50.45 C 82.00 48.13 83.55 45.92 86.05 45.14 C 90.33 43.56 95.55 47.36 95.16 51.99 C 95.63 56.85 89.73 60.85 85.40 58.57 C 83.17 57.75 81.97 55.61 81.15 53.53 C 75.65 53.23 70.14 53.55 64.64 53.35 C 64.84 52.63 65.26 51.19 65.47 50.46 C 70.67 50.71 75.88 50.68 81.08 50.45 Z" />
<path fill="#0082d1" opacity="1.00" d=" M 21.77 67.08 C 26.36 64.66 30.80 61.92 35.26 59.25 C 35.79 60.12 36.32 60.99 36.84 61.87 C 32.31 64.33 27.92 67.02 23.41 69.52 C 22.96 72.53 21.76 76.73 17.98 76.66 C 14.41 77.38 12.33 74.00 11.54 71.05 C 12.54 69.01 13.61 66.58 16.05 65.97 C 18.06 65.33 19.86 66.73 21.77 67.08 Z" />
<path fill="#0082d1" opacity="1.00" d=" M 60.98 62.53 C 61.69 61.80 62.47 59.63 63.75 60.81 C 68.17 63.31 72.56 65.85 76.93 68.42 C 79.44 66.69 82.99 66.19 85.07 68.86 C 88.50 71.96 85.44 78.20 80.99 77.84 C 77.84 78.05 75.53 75.06 75.53 72.10 C 75.65 70.74 74.36 70.24 73.40 69.65 C 69.23 67.33 65.10 64.94 60.98 62.53 Z" />
<path fill="#0082d1" opacity="1.00" d=" M 48.21 67.16 C 48.85 67.16 50.13 67.16 50.77 67.16 C 50.87 69.33 50.88 71.50 51.01 73.67 C 54.01 74.79 56.68 77.57 56.21 81.00 C 56.04 86.48 48.39 89.35 44.72 85.19 C 40.88 81.63 43.07 74.97 47.95 73.70 C 48.08 71.52 48.12 69.34 48.21 67.16 Z" />
</g>
</svg>
